<svg xmlns="http://www.w3.org/2000/svg" viewBox="0 0 243.7 217.76"><defs><style>.cls-1{fill:#fff;}.cls-2{fill:#0b77f8;}</style></defs><title>Asset 3</title><g id="Layer_2" data-name="Layer 2"><g id="Layer_1-2" data-name="Layer 1"><path class="cls-1" d="M191.69,21.59c-.45-.13-.9-.26-1.34-.38C68.2-13.19,26.59,2.29,13.44,12.17a20.36,20.36,0,0,0-3.56,3c-8.47,9-9.63,18-9.89,33.91C.7,96.82,28.6,149.36,46.32,178,61.81,141.39,101.84,70.08,191.69,21.59Z"/><path class="cls-1" d="M206.19,27.32c-1.11,21.78-8.93,62.92-52.4,61.56,0,0,18.66,6.64,31.28,2.9,0,0-12.3,39-62.38,33,0,0,7,8.79,29.84,7.83,0,0-23.31,26.31-55,19.15A33.75,33.75,0,0,0,87.3,151C63.64,152.91,51,180.7,49.79,183.52c5.16,8.06,9,13.49,10.37,15.35,7.11,10.8,18.18,18.89,30.6,18.89A43.12,43.12,0,0,0,110.1,213c18.56-7.93,73.61-34.08,113.69-80.52,9.57-9.88,15.92-23.74,18.78-38.84C248.61,61.77,229.52,39,206.19,27.32Z"/><path class="cls-2" d="M87.3,151a33.75,33.75,0,0,1,10.24.77c31.7,7.16,55-19.15,55-19.15-22.86,1-29.84-7.83-29.84-7.83,50.08,6,62.38-33,62.38-33-12.62,3.73-31.28-2.9-31.28-2.9,43.46,1.36,51.29-39.77,52.4-61.56a88.81,88.81,0,0,0-13.53-5.46l-1-.27C101.84,70.08,61.81,141.39,46.32,178q1.81,2.93,3.47,5.52C51,180.7,63.64,152.91,87.3,151Z"/></g></g></svg>